<?xml  version="1.0" encoding="UTF-8"?>
<!DOCTYPE svg PUBLIC "-//W3C//DTD SVG 1.0//EN" "http://www.w3.org/TR/2001/REC-SVG-20010904/DTD/svg10.dtd" >
<svg xmlns="http://www.w3.org/2000/svg" >
<metadata>
<version>1.0</version>
<id><![CDATA[Proxima N W01 X Cd Black It]]></id>
<vendor>Monotype Imaging Inc.</vendor>
<credits>
<name>Fonts.com WebFonts</name>
<URL>http://webfonts.fonts.com</URL>
<role>Home of the Web fonts</role>
</credits>
<license>
<URL>http://webfonts.fonts.com/Legal</URL>
</license>
<copyright><![CDATA[Copyright (c) Mark Simonson, 2005. All rights reserved.]]></copyright>
<trademark><![CDATA[Proxima Nova is a trademark of Mark Simonson.]]></trademark>
<licensee>
<name></name>
</licensee>
</metadata>
<defs >
<font horiz-adv-x="417" id="9eb46f2e-7802-4dfe-835a-dbfdf0118f11">
<font-face font-family="" panose-1="2 0 5 6 3 0 0 2 0 4" ascent="741" descent="-259" units-per-em="1000" alphabetic="0">
</font-face>
<missing-glyph horiz-adv-x="0" />

<glyph unicode="&#xA;" />
<glyph unicode="&#xD;" horiz-adv-x="0" />
<glyph unicode=" " horiz-adv-x="154" />
<glyph unicode="!" horiz-adv-x="270" d="M63 235L134 667H324L204 235H63ZM90 -12Q53 -12 28 13T3 75Q3 96 11 115T34 149T67 171T107 180Q144 180 169 154T194 91Q194 70 186 52T163 19T130 -4T90 -12Z"  />
<glyph unicode="&quot;" horiz-adv-x="442" d="M111 355Q111 413 112 461Q112 502 112 538T113 582Q113 602 121 619T141 649T171 669T208 677Q237 677 258 656T280 603Q280 592 277 583T272 569Q270 565 266 554T254 527T239 492T221 454Q201 409 177 355H111ZM314 355Q314 413 315 461Q315 502 315 538T316 582Q316 602 323 619T344 649T374 669T411 677Q440 677 461 656T483 603Q483 592 480 583T475 569Q473 565 469 554T457 527T442 492T424 454Q404 409 379 355H314Z"  />
<glyph unicode="#" horiz-adv-x="487" d="M138 0L213 163H158L85 0H-28L46 163H-4L40 260H91L156 406H105L147 502H200L274 667H387L313 502H367L440 667H553L479 502H530L488 406H435L369 260H424L379 163H324L251 0H138ZM322 406H268L203 260H257L322 406Z"  />
<glyph unicode="$" horiz-adv-x="435" d="M110 -5Q65 4 29 24T-28 72L69 202Q88 176 118 160T178 144Q200 144 214 158T228 194Q228 210 216 224T186 253T147 285T107 325T77 375T65 440Q65 483 79 522T120 593T182 646T261 675L282 768H396L374 668Q406 660 435 644T486 605L395 474Q378 497 353 509T300 522Q276 522 265 508T253 476Q253 459 265 445T294 415T333 382T371 342T401 292T413 228Q413 186 400 147T362 76T302 22T223 -8L203 -100H89L110 -5Z"  />
<glyph unicode="%" horiz-adv-x="604" d="M76 0L507 667H568L136 0H76ZM414 -12Q356 -12 324 24T291 116Q291 159 304 197T340 262T392 306T453 322Q511 322 543 286T576 194Q576 150 563 113T527 48T475 4T414 -12ZM421 82Q430 82 440 90T458 113T471 145T477 185Q477 228 445 228Q436 228 427 220T409 197T395 165T390 126Q390 82 421 82ZM189 342Q132 342 99 379T66 471Q66 514 79 552T115 617T167 661T229 677Q286 677 319 641T352 549Q352 505 339 468T303 402T251 358T189 342ZM197 437Q206 437 215 445T233 468T247 500T252 539Q252 583 221 583Q212 583 203 575T185 552T171 520T166 480Q166 437 197 437Z"  />
<glyph unicode="&amp;" horiz-adv-x="495" d="M290 0L281 19Q224 -12 162 -12Q88 -12 42 30T-4 151Q-4 199 9 235T45 298T95 346T155 384Q144 436 144 474Q144 517 159 554T199 619T257 661T329 677Q394 677 433 640T472 534Q472 495 458 466T420 414T366 373T306 338Q309 327 312 318T320 297L338 248Q351 271 362 295T385 341L494 273Q471 227 446 187T391 114Q403 87 416 60T444 0H290ZM203 110Q220 110 237 121Q229 140 222 158T209 196Q204 212 199 227T188 258Q172 241 164 222T155 178Q155 152 167 131T203 110ZM278 475Q278 468 278 462T279 449Q305 466 321 485T338 531Q338 551 333 558T317 566Q302 566 290 539T278 475Z"  />
<glyph unicode="&apos;" horiz-adv-x="241" d="M111 355Q111 413 112 461Q112 502 112 538T113 582Q113 602 121 619T141 649T171 669T208 677Q237 677 258 656T280 603Q280 592 277 583T272 569Q270 565 266 554T254 527T239 492T221 454Q201 409 177 355H111Z"  />
<glyph unicode="(" horiz-adv-x="306" d="M71 -199Q50 -143 38 -75T25 63Q25 244 89 398T266 685L371 621Q329 552 295 474T237 315T201 152T188 -10Q188 -21 188 -39T190 -78T193 -120T197 -157L71 -199Z"  />
<glyph unicode=")" horiz-adv-x="306" d="M235 685Q256 629 268 561T281 423Q281 242 217 88T40 -199L-65 -135Q-23 -66 11 11T69 170T105 333T118 496Q118 507 118 525T116 564T113 606T109 643L235 685Z"  />
<glyph unicode="*" horiz-adv-x="338" d="M155 353L184 464L81 418L60 484L165 522L81 580L132 638L208 573L227 677H302L271 565L374 613L396 546L293 508L375 450L324 392L247 457L230 353H155Z"  />
<glyph unicode="+" horiz-adv-x="388" d="M256 291L225 153H121L152 291H39L60 384H173L202 514H305L276 384H389L369 291H256Z"  />
<glyph unicode="&#x2c;" horiz-adv-x="270" d="M200 85Q200 53 188 21T154 -40T102 -95T36 -137L-18 -81Q-5 -75 10 -67T41 -47T68 -24T88 3Q86 2 82 2T76 2Q47 2 25 21T3 79Q3 100 12 118T36 150T70 172T109 180Q127 180 143 174T172 156T192 127T200 85Z"  />
<glyph unicode="-" horiz-adv-x="247" d="M15 176L44 308H231L202 176H15Z"  />
<glyph unicode="." horiz-adv-x="270" d="M90 -12Q54 -12 29 13T3 75Q3 96 11 115T34 149T68 171T108 180Q145 180 170 154T195 91Q195 70 187 52T164 19T131 -4T90 -12Z"  />
<glyph unicode="/" horiz-adv-x="254" d="M-60 -20L243 687H354L50 -20H-60Z"  />
<glyph unicode="0" horiz-adv-x="495" d="M214 -12Q172 -12 137 4T77 50T37 125T23 228Q23 312 46 393T108 537T202 638T320 677Q362 677 397 661T457 615T496 540T510 438Q510 353 488 272T425 128T331 27T214 -12ZM230 144Q246 144 260 163T287 213T308 280T324 354T334 420T338 468Q338 491 332 506T303 521Q287 521 273 502T246 453T225 385T209 312T199 246T195 198Q195 175 201 160T230 144Z"  />
<glyph unicode="1" horiz-adv-x="405" d="M133 0L230 442L126 355L49 459L305 667H457L310 0H133Z"  />
<glyph unicode="2" horiz-adv-x="491" d="M-23 0L17 175Q92 232 151 276T251 355T313 418T335 470Q335 494 320 507T276 521Q245 521 219 511T162 468L80 585Q120 626 174 651T295 677Q343 677 384 665T455 629T502 571T519 491Q519 444 501 404T449 326T364 246T249 154H448L414 0H-23Z"  />
<glyph unicode="3" horiz-adv-x="490" d="M222 -12Q183 -12 145 -3T73 23T16 65T-21 123L116 215Q130 181 158 163T222 144Q241 144 254 150T276 167T288 190T292 214Q292 237 273 248T228 259Q215 259 205 259T185 258L220 415Q223 415 231 415T248 414T265 414T277 414Q312 414 328 433T344 476Q344 499 324 510T272 521Q249 521 224 511T180 481L91 587Q132 626 184 651T302 677Q349 677 389 667T459 636T506 585T523 515Q523 477 509 446T472 393T421 356T365 338Q392 329 410 315T441 282T458 244T463 205Q463 158 444 119T393 50T316 5T222 -12Z"  />
<glyph unicode="4" horiz-adv-x="495" d="M200 0L226 120H-11L27 289L311 667H524L437 274H484L450 120H403L377 0H200ZM303 467L165 274H260L303 467Z"  />
<glyph unicode="5" horiz-adv-x="498" d="M221 -12Q131 -12 72 23T-16 122L117 215Q133 181 161 163T218 144Q236 144 250 151T275 171T292 200T298 236Q298 260 284 276T240 292Q215 292 198 282T164 252L44 293L127 667H536L502 513H270L243 391Q263 414 287 424T343 434Q406 434 445 390T484 263Q484 208 466 159T414 71T331 11T221 -12Z"  />
<glyph unicode="6" horiz-adv-x="491" d="M230 -12Q131 -12 76 49T20 229Q20 275 29 326T55 427T100 522T164 602T247 656T350 677Q408 677 453 656T527 599L415 478Q406 498 387 509T341 521Q322 521 305 512T272 486T245 447T224 399Q220 391 219 384T216 369Q239 404 272 421T340 438Q369 438 394 427T438 395T467 345T478 279Q478 225 461 173T412 79T333 13T230 -12ZM232 144Q247 144 258 154T278 179T291 211T295 242Q295 265 284 281T251 297Q231 297 219 286T195 254Q193 246 192 233T190 207Q190 178 200 161T232 144Z"  />
<glyph unicode="7" horiz-adv-x="451" d="M11 0L296 513H73L107 667H530L503 545L205 0H11Z"  />
<glyph unicode="8" horiz-adv-x="491" d="M225 -12Q113 -12 54 26T-5 153Q-5 182 4 213T34 271T85 321T158 356Q124 372 101 405T78 483Q78 529 98 565T150 626T224 664T308 677Q347 677 386 669T457 641T507 591T527 515Q527 482 516 452T485 398T436 356T374 333Q419 310 440 273T462 192Q462 148 446 111T398 47T323 4T225 -12ZM279 397Q305 407 325 425T346 481Q346 501 335 511T305 521Q277 521 262 500T246 450Q246 430 258 416T279 397ZM224 144Q251 144 270 167T289 227Q289 253 276 266T253 283Q240 280 227 273T203 255T185 227T178 190Q178 144 224 144Z"  />
<glyph unicode="9" horiz-adv-x="491" d="M300 678Q399 678 454 617T510 437Q510 391 502 340T475 239T430 144T366 64T283 10T180 -11Q122 -11 77 10T3 67L115 188Q124 168 143 157T189 145Q208 145 225 154T258 180T285 219T306 266Q310 275 311 282T314 297Q291 262 258 245T190 228Q161 228 136 239T92 271T63 321T52 387Q52 441 69 493T118 587T197 653T300 678ZM298 522Q283 522 272 512T252 487T240 455T236 424Q236 401 246 385T279 369Q299 369 311 380T335 411Q337 419 338 432T340 459Q340 488 330 505T298 522Z"  />
<glyph unicode=":" horiz-adv-x="270" d="M90 -12Q54 -12 29 13T3 75Q3 96 11 115T34 149T67 171T108 180Q144 180 169 154T195 91Q195 70 187 52T164 19T131 -4T90 -12ZM158 297Q122 297 97 323T71 385Q71 406 79 425T102 459T135 481T176 490Q212 490 237 464T263 401Q263 380 255 361T232 328T199 306T158 297Z"  />
<glyph unicode=";" horiz-adv-x="270" d="M200 85Q200 53 188 21T154 -40T102 -95T36 -137L-18 -81Q-5 -75 10 -67T41 -47T68 -24T88 3Q86 2 82 2T76 2Q47 2 25 21T3 79Q3 100 12 118T36 150T70 172T109 180Q127 180 143 174T172 156T192 127T200 85ZM159 297Q123 297 98 323T72 385Q72 406 80 425T103 459T136 481T177 490Q213 490 238 464T264 401Q264 380 256 361T233 328T200 306T159 297Z"  />
<glyph unicode="&lt;" horiz-adv-x="388" d="M36 278L61 392L419 520L394 404L154 329L361 257L337 150L36 278Z"  />
<glyph unicode="=" horiz-adv-x="388" d="M58 380L79 473H409L388 380H58ZM18 194L38 288H368L347 194H18Z"  />
<glyph unicode="&gt;" horiz-adv-x="388" d="M8 150L34 266L273 339L66 413L89 520L391 392L365 278L8 150Z"  />
<glyph unicode="?" horiz-adv-x="338" d="M96 216Q92 227 90 244T88 275Q88 327 107 361T150 419T193 462T213 503Q213 514 206 522T185 530Q174 530 162 526T139 510L92 622Q128 651 167 664T244 677Q275 677 303 668T352 643T385 603T397 551Q397 517 385 490T355 440T315 398T276 361T245 325T233 286Q233 281 234 273T237 259L96 216ZM126 -12Q89 -12 64 13T39 75Q39 96 47 115T70 149T103 171T144 180Q180 180 205 154T231 91Q231 70 223 52T200 19T166 -4T126 -12Z"  />
<glyph unicode="@" horiz-adv-x="670" d="M299 -70Q237 -70 192 -50T116 7T70 97T55 214Q55 296 84 373T163 508T280 602T424 638Q473 638 515 622T589 574T637 499T655 400Q655 338 641 282T602 181T543 111T469 85Q434 85 408 101T373 149L371 159Q351 129 324 107T252 85Q234 85 217 91T185 113T163 153T154 218Q154 269 168 318T208 408T270 472T351 497Q381 497 398 481T424 439L434 485H572L524 256Q523 252 522 243T521 229Q521 211 526 200T548 189Q556 189 566 204T586 246T601 312T608 398Q608 492 559 544T421 596Q353 596 294 563T192 477T123 355T98 217Q98 168 109 124T144 45T207 -9T304 -29Q351 -29 387 -15T462 25L485 -7Q440 -37 397 -53T299 -70ZM330 194Q350 194 362 209T382 239L405 353Q402 366 395 377T374 388Q355 388 341 373T317 337T303 290T298 244Q298 223 304 209T330 194Z"  />
<glyph unicode="A" horiz-adv-x="484" d="M259 0L266 93H159L125 0H-60L233 667H436V0H259ZM297 475L214 247H280L297 475Z"  />
<glyph unicode="B" horiz-adv-x="502" d="M-13 0L134 667H349Q394 667 427 655T483 621T517 572T529 514Q529 482 519 451T489 394T443 351T383 331Q428 319 449 284T470 205Q470 170 459 134T424 68T363 19T274 0H-13ZM286 415Q311 415 326 432T342 475Q342 513 294 513H277L256 415H286ZM232 154Q259 154 276 172T294 221Q294 261 251 261H221L198 154H232Z"  />
<glyph unicode="C" horiz-adv-x="467" d="M231 -12Q179 -12 140 5T74 52T35 126T21 223Q21 263 28 312T50 412T90 511T149 596T228 655T330 678Q386 678 423 657T482 604T514 531T524 451L361 419Q361 439 359 457T353 490T341 513T320 522Q302 522 286 506T256 463T233 403T215 336T204 271T200 219Q200 179 210 162T239 144Q278 144 312 222L454 166Q419 83 366 36T231 -12Z"  />
<glyph unicode="D" horiz-adv-x="524" d="M-13 0L134 667H335Q374 667 409 652T473 606T517 533T534 433Q534 393 527 346T504 250T463 157T399 77T311 21T194 0H-13ZM225 154Q259 154 284 186T324 262T347 353T355 430Q355 474 340 493T303 513H277L198 154H225Z"  />
<glyph unicode="E" horiz-adv-x="405" d="M-13 0L134 667H470L436 513H277L256 415H408L374 261H221L198 154H357L323 0H-13Z"  />
<glyph unicode="F" horiz-adv-x="400" d="M-13 0L134 667H470L436 513H277L256 415H408L374 261H221L164 0H-13Z"  />
<glyph unicode="G" horiz-adv-x="495" d="M231 -12Q177 -12 138 5T72 54T34 129T21 223Q21 268 29 319T53 421T95 518T154 600T232 657T330 678Q380 678 415 662T472 618T504 553T515 475L367 438Q367 471 357 496T321 522Q303 522 287 507T258 465T234 407T216 341T204 275T200 219Q200 178 209 161T240 144Q257 144 271 153T296 176L308 231H247L282 385H496L435 111Q393 47 341 18T231 -12Z"  />
<glyph unicode="H" horiz-adv-x="532" d="M260 0L318 266H222L164 0H-13L134 667H311L256 420H353L407 667H583L436 0H260Z"  />
<glyph unicode="I" horiz-adv-x="259" d="M-13 0L134 667H311L164 0H-13Z"  />
<glyph unicode="J" horiz-adv-x="375" d="M98 -12Q60 -12 23 -3T-38 24L27 167Q37 156 52 150T81 144Q107 144 125 158T149 201L252 667H429L324 192Q300 85 247 37T98 -12Z"  />
<glyph unicode="K" horiz-adv-x="524" d="M290 0L253 223L194 137L164 0H-13L134 667H311L257 419L410 667H611L386 356L475 0H290Z"  />
<glyph unicode="L" horiz-adv-x="396" d="M-13 0L134 667H311L198 154H357L323 0H-13Z"  />
<glyph unicode="M" horiz-adv-x="675" d="M405 0L476 321L311 0H256L234 321L164 0H-13L134 667H349L367 399L508 667H726L579 0H405Z"  />
<glyph unicode="N" horiz-adv-x="532" d="M272 0L225 278L164 0H-13L134 667H311L350 406L407 667H583L436 0H272Z"  />
<glyph unicode="O" horiz-adv-x="522" d="M231 -12Q177 -12 138 6T72 55T34 130T21 223Q21 264 28 313T51 413T91 512T150 596T229 655T330 678Q383 678 422 660T488 610T527 535T540 442Q540 401 533 351T509 251T469 154T410 69T331 10T231 -12ZM239 144Q257 144 273 160T303 203T327 263T345 330T356 394T360 445Q360 478 351 500T320 522Q302 522 286 506T256 462T233 402T215 335T204 271T200 219Q200 186 208 165T239 144Z"  />
<glyph unicode="P" horiz-adv-x="496" d="M-13 0L134 667H341Q384 667 418 653T477 613T515 553T528 480Q528 430 512 384T462 301T377 244T258 222H213L164 0H-13ZM273 376Q290 376 303 383T326 403T340 430T345 461Q345 485 333 499T300 513H277L247 376H273Z"  />
<glyph unicode="Q" horiz-adv-x="523" d="M231 -12Q177 -12 138 6T72 55T34 130T21 223Q21 264 28 313T51 413T91 512T150 596T229 655T330 678Q383 678 422 660T488 610T527 535T540 442Q540 398 532 344T505 237T458 134T389 49L399 -12L272 -36L267 -9Q250 -12 231 -12ZM242 144L228 230L321 247Q330 272 337 300T350 354T357 404T360 445Q360 478 351 500T320 522Q302 522 286 506T256 462T233 402T215 335T204 271T200 219Q200 186 208 165T239 144H242Z"  />
<glyph unicode="R" horiz-adv-x="510" d="M249 0L240 222H213L164 0H-13L134 667H343Q383 667 416 653T474 613T513 553T527 478Q527 439 516 403T488 337T449 286T407 255L433 0H249ZM273 376Q305 376 324 401T344 460Q344 489 331 501T299 513H277L247 376H273Z"  />
<glyph unicode="S" horiz-adv-x="437" d="M178 -12Q112 -12 57 11T-28 72L69 202Q88 176 118 160T178 144Q200 144 214 158T228 194Q228 210 216 224T186 253T147 285T107 325T77 375T65 440Q65 489 83 532T132 607T207 659T302 678Q353 678 403 660T486 605L395 474Q378 497 353 509T300 522Q276 522 265 508T253 476Q253 459 265 445T294 415T333 382T371 342T401 292T413 228Q413 180 397 137T349 60T275 8T178 -12Z"  />
<glyph unicode="T" horiz-adv-x="406" d="M61 0L174 513H77L111 667H481L447 513H351L238 0H61Z"  />
<glyph unicode="U" horiz-adv-x="532" d="M236 -12Q194 -12 157 1T92 40T48 101T32 181Q32 189 33 199T36 221L134 667H311L209 204Q208 199 207 194T206 183Q206 164 218 153T249 142Q269 142 283 156T305 204L407 667H584L483 214Q470 155 446 112T388 42T316 1T236 -12Z"  />
<glyph unicode="V" horiz-adv-x="484" d="M86 0L87 667H264L233 224L397 667H583L289 0H86Z"  />
<glyph unicode="W" horiz-adv-x="684" d="M328 0L364 346L247 0H72L97 667H273L233 305L365 667H499L473 305L592 667H773L504 0H328Z"  />
<glyph unicode="X" horiz-adv-x="509" d="M276 0L245 182L142 0H-60L178 350L95 667H281L304 496L396 667H599L372 333L461 0H276Z"  />
<glyph unicode="Y" horiz-adv-x="489" d="M102 0L161 269L86 667H265L279 435L396 667H589L337 269L279 0H102Z"  />
<glyph unicode="Z" horiz-adv-x="412" d="M-28 0L4 147L229 513H85L119 667H472L441 526L211 154H366L332 0H-28Z"  />
<glyph unicode="[" horiz-adv-x="227" d="M-60 -190L132 678H306L283 577H220L73 -89H136L113 -190H-60Z"  />
<glyph unicode="\" horiz-adv-x="254" d="M88 687H195V-20H88V687Z"  />
<glyph unicode="]" horiz-adv-x="227" d="M-78 -190L-56 -89H7L155 577H92L114 678H288L95 -190H-78Z"  />
<glyph unicode="^" horiz-adv-x="344" d="M239 333L241 543L150 333H38L209 667H322L344 333H239Z"  />
<glyph unicode="_" horiz-adv-x="279" d="M-88 -141L-65 -40H219L196 -141H-88Z"  />
<glyph unicode="`" horiz-adv-x="209" d="M181 556L101 700H230L278 556H181Z"  />
<glyph unicode="a" horiz-adv-x="461" d="M207 495Q245 495 271 480T310 428L323 483H479L372 0H215L227 53Q203 18 177 3T123 -12Q66 -12 36 28T6 153Q6 186 11 224T28 300T55 373T94 436T144 479T207 495ZM247 356Q226 356 211 335T187 286T173 227T168 177Q168 127 208 127Q221 127 232 136T251 160L287 322Q279 356 247 356Z"  />
<glyph unicode="b" horiz-adv-x="461" d="M254 -12Q215 -12 189 3T150 55L139 0H-18L128 667H286L233 430Q258 465 284 480T338 495Q454 495 454 330Q454 297 449 259T432 183T405 110T367 47T316 4T254 -12ZM213 127Q234 127 249 147T273 197T287 256T292 306Q292 356 252 356Q240 356 229 347T210 323L174 161Q178 144 188 136T213 127Z"  />
<glyph unicode="c" horiz-adv-x="371" d="M200 -12Q112 -12 61 38T9 183Q9 242 26 298T76 398T154 468T258 495Q303 495 341 481T402 445L332 327Q321 343 306 349T273 356Q251 356 232 343T200 309T178 260T170 204Q170 165 189 146T241 127Q256 127 270 133T296 149L315 24Q270 -12 200 -12Z"  />
<glyph unicode="d" horiz-adv-x="461" d="M207 495Q245 495 271 480T310 428L363 667H519L372 0H215L227 53Q203 18 177 3T123 -12Q66 -12 36 28T6 153Q6 186 11 224T28 300T55 373T94 436T144 479T207 495ZM247 356Q226 356 211 335T187 286T173 227T168 177Q168 127 208 127Q221 127 232 136T251 160L287 322Q279 356 247 356Z"  />
<glyph unicode="e" horiz-adv-x="435" d="M200 -12Q109 -12 59 40T9 186Q9 238 25 293T73 393T149 466T254 495Q301 495 334 481T387 443T417 386T427 315Q427 279 420 243T407 189H153Q152 186 152 182T152 174Q152 167 155 157T167 138T191 121T233 114Q256 114 276 123T313 145L361 47Q331 19 287 4T200 -12ZM285 297Q286 303 286 309T287 321Q287 344 274 356T241 369Q225 369 214 362T194 345T182 322T175 297H285Z"  />
<glyph unicode="f" horiz-adv-x="275" d="M-1 0L75 346H33L64 483H105L109 502Q116 537 128 569T161 625T210 663T282 677Q318 677 350 668T396 646L339 531Q326 544 311 544Q291 544 281 532T266 502L262 483H319L288 346H232L156 0H-1Z"  />
<glyph unicode="g" horiz-adv-x="461" d="M140 -196Q80 -196 34 -179T-40 -130L36 -15Q54 -38 80 -50T135 -63Q167 -63 188 -41T222 32L233 80Q211 45 184 30T129 14Q69 14 39 53T9 168Q9 199 13 235T28 307T53 377T90 437T141 479T206 495Q220 495 236 492T268 480T294 459T309 428L322 483H479L378 32Q363 -36 339 -80T284 -150T217 -186T140 -196ZM212 154Q224 154 236 163T256 187L286 322Q281 338 270 347T245 356Q224 356 210 339T187 297T175 247T171 204Q171 176 181 165T212 154Z"  />
<glyph unicode="h" horiz-adv-x="462" d="M215 0L285 316Q285 317 286 323T287 331Q287 356 264 356Q246 356 232 341T207 309L139 0H-19L128 667H286L232 426Q242 439 255 451T285 473T320 489T359 495Q407 495 433 470T459 406Q459 395 456 380L373 0H215Z"  />
<glyph unicode="i" horiz-adv-x="228" d="M185 525Q149 525 126 547T103 602Q103 627 112 646T137 679T170 699T206 706Q241 706 264 684T287 629Q287 604 278 585T253 552T220 532T185 525ZM-19 0L88 483H246L139 0H-19Z"  />
<glyph unicode="j" horiz-adv-x="228" d="M-53 -196Q-79 -196 -101 -191T-136 -174L-85 -56Q-79 -63 -63 -63Q-33 -63 -22 -13L88 483H246L135 -13Q126 -56 112 -90T77 -147T24 -183T-53 -196ZM185 525Q149 525 126 547T103 602Q103 627 112 646T137 679T170 699T206 706Q241 706 264 684T287 629Q287 604 278 585T253 552T220 532T185 525Z"  />
<glyph unicode="k" horiz-adv-x="445" d="M225 0L209 169L161 102L139 0H-19L128 667H286L208 312L317 483H494L339 270L396 0H225Z"  />
<glyph unicode="l" horiz-adv-x="228" d="M-19 0L128 667H286L139 0H-19Z"  />
<glyph unicode="m" horiz-adv-x="696" d="M449 0L519 316Q519 317 520 322T521 331Q521 342 515 349T498 356Q479 356 464 340T441 309L373 0H215L285 316Q285 317 286 322T287 331Q287 356 264 356Q245 356 230 340T207 309L139 0H-19L88 483H246L232 426Q252 454 287 474T359 495Q381 495 399 489T431 472T451 448T459 419Q459 417 459 417Q459 417 458 415Q468 431 483 445T516 471T553 488T593 495Q637 495 665 472T693 406Q693 399 692 392T690 380L606 0H449Z"  />
<glyph unicode="n" horiz-adv-x="462" d="M215 0L285 316Q285 318 286 323T287 331Q287 356 264 356Q246 356 232 341T207 309L139 0H-19L88 483H246L232 426Q242 439 255 451T285 473T320 489T359 495Q407 495 433 470T459 406Q459 401 458 393T456 380L373 0H215Z"  />
<glyph unicode="o" horiz-adv-x="451" d="M196 -12Q149 -12 114 2T55 43T21 105T9 185Q9 237 25 292T72 392T149 466T253 495Q300 495 335 481T394 440T429 378T441 298Q441 245 425 190T377 90T300 17T196 -12ZM205 127Q225 127 239 148T263 198T277 256T282 302Q282 332 273 344T244 356Q224 356 210 335T187 285T173 227T168 181Q168 151 177 139T205 127Z"  />
<glyph unicode="p" horiz-adv-x="461" d="M254 -12Q215 -12 189 3T150 55L98 -184H-59L88 483H246L233 430Q258 465 284 480T338 495Q454 495 454 330Q454 297 449 259T432 183T405 110T367 47T316 4T254 -12ZM213 127Q234 127 249 147T273 197T287 256T292 306Q292 356 252 356Q240 356 229 347T210 323L174 161Q178 144 188 136T213 127Z"  />
<glyph unicode="q" horiz-adv-x="461" d="M207 495Q245 495 271 480T310 428L322 483H478L331 -184H174L227 53Q203 18 177 3T123 -12Q66 -12 36 28T6 153Q6 186 11 224T28 300T55 373T94 436T144 479T207 495ZM247 356Q226 356 211 335T187 286T173 227T168 177Q168 127 208 127Q221 127 232 136T251 160L287 322Q279 356 247 356Z"  />
<glyph unicode="r" horiz-adv-x="309" d="M-19 0L88 483H246L233 427Q251 456 284 476T354 496L319 342Q313 345 307 346T289 348Q242 348 205 302L139 0H-19Z"  />
<glyph unicode="s" horiz-adv-x="382" d="M156 -12Q124 -12 95 -5T40 12T-3 36T-31 64L51 165Q66 145 93 128T154 111Q175 111 187 119T199 141Q199 151 187 159T158 177T119 197T81 224T51 262T39 317Q39 351 51 383T86 440T145 480T227 495Q275 495 322 477T402 423L324 323Q319 329 309 337T286 353T258 366T227 372Q210 372 200 365T189 345Q189 336 201 329T232 312T272 292T312 264T342 224T355 169Q355 134 342 102T303 44T240 3T156 -12Z"  />
<glyph unicode="t" horiz-adv-x="282" d="M164 -12Q22 -12 22 90Q22 102 23 112T28 139L75 346H33L64 483H105L134 615H292L263 483H319L288 346H232L193 170Q192 165 192 161T191 151Q191 127 214 127Q224 127 232 133L227 0Q218 -5 204 -8T164 -12Z"  />
<glyph unicode="u" horiz-adv-x="462" d="M246 483L177 171Q175 164 174 159T173 149Q173 140 179 134T197 127Q215 127 229 141T253 173L322 483H480L373 0H215L228 57Q218 44 205 32T175 10T140 -6T102 -12Q54 -12 28 13T1 77Q1 82 2 90T5 103L88 483H246Z"  />
<glyph unicode="v" horiz-adv-x="435" d="M80 0L47 483H209L202 198L324 483H494L247 0H80Z"  />
<glyph unicode="w" horiz-adv-x="674" d="M340 0L342 269L226 0H60L50 483H208L197 210L307 483H454L451 210L563 483H730L506 0H340Z"  />
<glyph unicode="x" horiz-adv-x="418" d="M206 0L188 129L111 0H-60L109 242L52 483H213L229 356L301 483H471L306 242L369 0H206Z"  />
<glyph unicode="y" horiz-adv-x="435" d="M3 -52Q11 -57 26 -57Q48 -57 62 -33L79 -3L47 483H209L202 199L324 483H494L214 -64Q193 -104 174 -129T135 -170T92 -190T42 -196Q16 -196 -9 -192T-47 -181L3 -52Z"  />
<glyph unicode="z" horiz-adv-x="368" d="M-35 0L-10 116L172 346H41L72 483H398L373 372L188 137H324L295 0H-35Z"  />
<glyph unicode="{" horiz-adv-x="237" d="M107 -190Q84 -190 63 -183T24 -161T-5 -128T-16 -84Q-16 -78 -15 -71T-13 -58L30 137Q31 141 32 145T33 154Q33 175 22 188T-7 202L12 286Q41 286 56 303T78 351L121 546Q135 609 178 643T290 678H316L294 577H268Q254 577 245 569T232 546L183 323Q175 287 161 265T118 232Q147 217 147 176Q147 158 143 142L101 -48Q100 -52 99 -56T98 -66Q98 -77 104 -83T119 -89H145L123 -190H107Z"  />
<glyph unicode="|" horiz-adv-x="184" d="M61 -20V687H163V-20H61Z"  />
<glyph unicode="}" horiz-adv-x="237" d="M129 678Q151 678 173 671T213 649T241 616T252 572Q252 558 249 546L206 351Q205 347 204 343T203 334Q203 313 214 300T243 286L224 202Q195 202 180 185T158 137L115 -58Q101 -121 58 -155T-54 -190H-80L-58 -89H-32Q-18 -89 -9 -81T4 -58L53 165Q61 200 75 222T118 256Q104 263 97 277T89 312Q89 330 93 346L136 536Q138 546 138 554Q138 565 132 571T117 577H91L113 678H129Z"  />
<glyph unicode="~" horiz-adv-x="437" d="M503 659Q497 622 486 578T454 496T403 432T328 406Q297 406 280 418T255 449T246 490T244 530T242 561T232 574Q225 574 218 567T202 540T184 488T165 405L62 413Q68 450 80 494T113 576T164 641T239 667Q270 667 287 655T312 623T321 583T323 542T324 511T335 498Q342 498 349 505T365 532T382 583T402 667L503 659Z"  />
<glyph unicode="&#xA0;" horiz-adv-x="154" />
<glyph unicode="&#xA1;" horiz-adv-x="270" d="M207 248L136 -184H-53L67 248H207ZM181 495Q218 495 243 470T268 408Q268 387 260 368T237 334T204 312T163 303Q127 303 102 329T76 392Q76 413 84 431T107 464T141 487T181 495Z"  />
<glyph unicode="&#xA2;" horiz-adv-x="371" d="M102 8Q57 31 33 74T9 183Q9 235 23 285T62 377T125 448T209 489L226 565H338L320 487Q372 473 402 445L332 327Q321 343 306 349T273 356Q251 356 232 343T200 309T178 260T170 204Q170 165 189 146T241 127Q256 127 270 133T296 149L315 24Q295 7 268 -1T210 -12L190 -100H78L102 8Z"  />
<glyph unicode="&#xA3;" horiz-adv-x="469" d="M59 378H94Q88 403 88 438Q88 494 110 538T168 613T247 660T333 677Q370 677 403 667T462 637T503 586T519 512L368 471Q367 503 360 519T335 535Q322 535 311 525T293 497T281 457T276 411Q276 403 276 395T278 378H345L324 281H277Q269 241 251 209T204 157Q225 164 239 164Q255 164 267 161T290 154T312 147T338 144Q363 144 377 151T405 169L415 26Q396 9 369 -1T305 -12Q273 -12 250 -6T206 9T167 23T125 30Q103 30 83 22T35 -7L14 110Q60 136 86 178T113 271V281H38L59 378Z"  />
<glyph unicode="&#xA4;" horiz-adv-x="491" d="M240 98Q188 98 149 116L65 48L-14 149L61 209Q48 242 48 287Q48 342 65 393T114 483L63 550L167 633L224 557Q252 566 286 566Q336 566 376 550L464 620L544 519L467 456Q481 419 481 376Q481 322 464 272T415 183L465 117L362 34L305 108Q276 98 240 98ZM198 296Q198 271 208 251T248 231Q263 231 278 241T304 269T323 312T331 368Q331 397 319 416T281 435Q266 435 251 425T224 397T205 353T198 296Z"  />
<glyph unicode="&#xA5;" horiz-adv-x="489" d="M101 0L125 110H-3L18 204H145L160 269H32L54 362H142L85 667H264L278 435L395 667H588L395 362H485L463 269H336L322 204H449L428 110H301L278 0H101Z"  />
<glyph unicode="&#xA6;" horiz-adv-x="184" d="M61 -20V296H163V-20H61ZM61 371V687H163V371H61Z"  />
<glyph unicode="&#xA7;" horiz-adv-x="384" d="M391 347Q391 298 366 258T289 192Q314 175 325 150T336 100Q336 62 321 29T280 -28T219 -67T141 -81Q78 -81 25 -64T-53 -12L30 88Q45 64 71 49T130 34Q156 34 169 48T183 79Q183 94 172 105T143 126T105 146T67 173T38 211T26 266Q26 315 55 354T133 411Q110 425 96 452T81 508Q81 544 95 575T134 628T192 664T264 677Q336 677 379 658T450 606L370 520Q351 544 326 556T276 568Q254 568 242 555T230 527Q230 513 242 502T272 481T310 459T349 432T379 397T391 347ZM246 307Q246 325 239 337T219 358Q191 350 181 334T171 297Q171 283 178 269T209 245Q227 254 236 270T246 307Z"  />
<glyph unicode="&#xA8;" horiz-adv-x="291" d="M401 624Q401 606 394 590T373 562T344 543T310 535Q280 535 260 555T240 606Q240 624 247 640T267 668T296 687T330 695Q360 695 380 675T401 624ZM216 624Q216 606 209 590T189 562T160 543T126 535Q95 535 75 555T55 606Q55 624 62 640T82 668T111 687T145 695Q175 695 195 675T216 624Z"  />
<glyph unicode="&#xA9;" horiz-adv-x="778" d="M754 334Q754 263 727 200T652 90T542 16T408 -11Q337 -11 274 16T165 90T91 200T64 334Q64 405 91 468T164 578T274 652T408 679Q479 679 542 652T652 578T726 468T754 334ZM714 334Q714 397 690 452T624 549T527 615T408 639Q345 639 290 615T194 550T128 453T104 334Q104 271 128 216T193 119T290 53T408 29Q471 29 526 53T623 118T689 215T714 334ZM535 179Q508 156 471 140T394 124Q350 124 315 138T255 176T217 234T203 307Q203 358 222 401T273 476T348 526T435 544Q486 544 528 524T596 463L554 433Q517 500 432 500Q399 500 368 486T311 447T270 386T254 309Q254 281 263 256T291 211T335 180T395 168Q427 168 457 182T507 217L535 179Z"  />
<glyph unicode="&#xAA;" horiz-adv-x="334" d="M231 560Q219 560 209 549T191 520T180 482T176 443Q176 426 182 417T203 407Q219 407 234 431L258 539Q250 560 231 560ZM392 640L323 326H211L218 360Q201 337 183 328T145 318Q128 318 113 324T86 344T68 379T61 432Q61 467 70 505T98 575T141 627T199 648Q222 648 241 639T273 606L280 640H392Z"  />
<glyph unicode="&#xAB;" horiz-adv-x="446" d="M79 63L29 243L159 420H278L145 239L194 63H79ZM257 63L207 243L337 420H457L324 239L373 63H257Z"  />
<glyph unicode="&#xAC;" horiz-adv-x="388" d="M347 194H251L291 380H58L79 473H409L347 194Z"  />
<glyph unicode="&#xAD;" horiz-adv-x="247" d="M15 176L44 308H231L202 176H15Z"  />
<glyph unicode="&#xAE;" horiz-adv-x="494" d="M508 465Q508 421 492 383T446 315T378 270T295 253Q251 253 213 269T146 315T101 382T84 465Q84 509 100 548T146 615T213 660T296 677Q340 677 379 661T446 616T491 548T508 465ZM474 465Q474 502 460 534T422 591T365 629T295 643Q258 643 226 629T169 591T132 535T118 465Q118 428 131 396T169 339T225 301T295 287Q332 287 364 301T421 339T460 395T474 465ZM328 343L286 439H244L223 343H187L240 586H334Q366 586 386 568T406 522Q406 503 399 488T380 463T354 446T326 440L370 343H328ZM368 519Q368 556 326 556H270L251 470H314Q336 470 352 483T368 519Z"  />
<glyph unicode="&#xAF;" horiz-adv-x="268" d="M70 555L88 642H356L337 555H70Z"  />
<glyph unicode="&#xB0;" horiz-adv-x="322" d="M368 534Q368 504 357 478T327 433T281 402T225 391Q195 391 170 402T125 432T94 478T83 534Q83 564 94 590T124 635T169 666T225 677Q255 677 281 666T326 636T357 590T368 534ZM287 534Q287 559 269 577T225 596Q199 596 182 578T164 534Q164 508 181 491T224 473Q250 473 268 490T287 534Z"  />
<glyph unicode="&#xB1;" horiz-adv-x="388" d="M256 291L225 153H121L152 291H39L60 384H173L202 514H305L276 384H389L369 291H256ZM-23 9L-3 103H327L307 9H-23Z"  />
<glyph unicode="&#xB2;" horiz-adv-x="322" d="M64 421L84 512Q151 559 192 589T256 640T286 674T294 702Q294 717 283 726T252 735Q211 735 173 694L121 769Q148 795 184 811T263 827Q294 827 321 820T368 798T400 763T412 714Q412 686 401 663T366 616T308 568T229 513H371L350 421H64Z"  />
<glyph unicode="&#xB3;" horiz-adv-x="322" d="M374 538Q374 514 363 492T333 452T286 425T225 414Q174 414 132 431T68 483L151 551Q174 506 218 506Q239 506 250 519T262 548Q262 564 251 571T221 578Q212 578 204 578T190 577L210 668Q214 667 226 667T244 667Q269 667 281 677T293 705Q293 720 281 727T250 735Q233 735 214 727T179 702L123 768Q182 827 261 827Q326 827 367 801T409 724Q409 707 403 690T384 657T353 632T310 620Q345 610 359 587T374 538Z"  />
<glyph unicode="&#xB4;" horiz-adv-x="209" d="M166 556H67L179 700H310L166 556Z"  />
<glyph unicode="&#xB5;" horiz-adv-x="477" d="M99 -184H-59L88 483H246L175 164Q172 148 177 138T196 127Q214 127 228 141T253 172L322 483H480L407 154Q405 143 407 135T422 127Q431 127 437 129L420 -2Q408 -6 389 -9T347 -12Q291 -12 272 9T251 76Q238 31 214 10T170 -12Q158 -12 152 -10T138 -3L99 -184Z"  />
<glyph unicode="&#xB6;" horiz-adv-x="449" d="M267 -100L422 594H349L194 -100H122L216 323Q188 323 163 334T120 367T90 416T79 479Q79 514 93 548T134 608T195 651T273 667H509L339 -100H267Z"  />
<glyph unicode="&#xB7;" horiz-adv-x="270" d="M126 148Q89 148 64 174T39 236Q39 257 47 276T70 310T103 332T144 341Q180 341 205 315T230 252Q230 231 222 212T199 179T166 157T126 148Z"  />
<glyph unicode="&#xB8;" horiz-adv-x="199" d="M14 -198Q-19 -198 -44 -187T-88 -157L-51 -103Q-40 -117 -23 -126T13 -136Q29 -136 38 -128T47 -106Q47 -98 43 -93T29 -88Q21 -88 17 -91T8 -100L-39 -70L9 11H82L43 -49Q53 -40 66 -40Q89 -40 105 -56T121 -102Q121 -144 91 -171T14 -198Z"  />
<glyph unicode="&#xB9;" horiz-adv-x="273" d="M161 421L215 669L153 619L101 688L266 821H366L278 421H161Z"  />
<glyph unicode="&#xBA;" horiz-adv-x="327" d="M198 318Q132 318 98 355T64 448Q64 485 76 521T110 585T163 631T235 648Q301 648 335 611T369 518Q369 480 357 445T323 381T270 335T198 318ZM203 407Q217 407 227 422T243 456T253 495T256 524Q256 558 229 558Q215 558 205 543T189 509T180 470T177 441Q177 407 203 407Z"  />
<glyph unicode="&#xBB;" horiz-adv-x="446" d="M188 420L238 240L108 63H-11L122 244L73 420H188ZM367 420L417 240L287 63H167L300 244L251 420H367Z"  />
<glyph unicode="&#xBC;" horiz-adv-x="720" d="M127 267L181 515L119 465L67 534L232 667H332L244 267H127ZM641 77L625 0H508L525 77H370L390 165L573 400H713L662 168H693L673 77H641ZM569 273L488 168H545L569 273ZM195 0H135L566 667H627L195 0Z"  />
<glyph unicode="&#xBD;" horiz-adv-x="758" d="M127 267L181 515L119 465L67 534L232 667H332L244 267H127ZM408 0L428 91Q495 138 536 168T600 219T630 253T638 281Q638 296 627 305T596 314Q555 314 517 273L465 348Q492 374 528 390T607 406Q638 406 665 399T712 377T744 342T756 293Q756 265 745 242T710 195T652 147T573 92H715L694 0H408ZM195 0H135L566 667H627L195 0Z"  />
<glyph unicode="&#xBE;" horiz-adv-x="756" d="M677 77L661 0H544L561 77H406L426 165L609 400H749L698 168H729L709 77H677ZM605 273L524 168H581L605 273ZM231 0H171L602 667H663L231 0ZM340 384Q340 360 329 338T299 298T252 271T191 260Q140 260 98 277T34 329L117 397Q140 352 184 352Q205 352 216 365T228 394Q228 410 217 417T187 424Q178 424 170 424T156 423L176 514Q180 513 192 513T210 513Q235 513 247 523T259 551Q259 566 247 573T216 581Q199 581 180 573T145 548L89 614Q148 673 227 673Q292 673 333 647T375 570Q375 553 369 536T350 503T319 478T276 466Q311 456 325 433T340 384Z"  />
<glyph unicode="&#xBF;" horiz-adv-x="304" d="M240 266Q244 255 246 238T248 207Q248 155 229 121T186 63T143 21T123 -20Q123 -32 130 -40T152 -48Q163 -48 175 -44T197 -28L244 -140Q208 -169 169 -182T92 -195Q61 -195 33 -186T-16 -161T-49 -121T-61 -69Q-61 -35 -49 -8T-19 42T21 84T61 121T92 157T104 196Q104 201 103 209T99 223L240 266ZM211 495Q247 495 272 469T298 407Q298 386 290 367T267 333T233 311T193 302Q156 302 131 328T106 391Q106 412 114 431T137 464T170 486T211 495Z"  />
<glyph unicode="&#xC0;" horiz-adv-x="484" d="M259 0L266 93H159L125 0H-60L233 667H436V0H259ZM297 475L214 247H280L297 475ZM301 723L221 867H350L398 723H301Z"  />
<glyph unicode="&#xC1;" horiz-adv-x="484" d="M259 0L266 93H159L125 0H-60L233 667H436V0H259ZM297 475L214 247H280L297 475ZM391 723H292L404 867H535L391 723Z"  />
<glyph unicode="&#xC2;" horiz-adv-x="484" d="M395 723L365 802L303 723H217L308 867H446L477 723H395ZM259 0L266 93H159L125 0H-60L233 667H436V0H259ZM297 475L214 247H280L297 475Z"  />
<glyph unicode="&#xC3;" horiz-adv-x="484" d="M259 0L266 93H159L125 0H-60L233 667H436V0H259ZM297 475L214 247H280L297 475ZM403 721Q380 721 369 729T351 747T337 765T317 774Q296 774 286 727H206Q220 787 248 824T322 861Q344 861 355 853T374 834T389 816T409 807Q420 807 427 818T440 855H520Q506 795 477 758T403 721Z"  />
<glyph unicode="&#xC4;" horiz-adv-x="484" d="M533 791Q533 773 526 757T505 729T476 710T442 702Q412 702 392 722T372 773Q372 791 379 807T399 835T428 854T462 862Q492 862 512 842T533 791ZM348 791Q348 773 341 757T321 729T292 710T258 702Q227 702 207 722T187 773Q187 791 194 807T214 835T243 854T277 862Q307 862 327 842T348 791ZM259 0L266 93H159L125 0H-60L233 667H436V0H259ZM297 475L214 247H280L297 475Z"  />
<glyph unicode="&#xC5;" horiz-adv-x="484" d="M259 0L266 93H159L125 0H-60L233 667H436V0H259ZM297 475L214 247H280L297 475ZM351 687Q314 687 291 711T267 772Q267 793 275 812T298 847T332 870T373 879Q411 879 434 855T457 794Q457 773 449 754T426 719T392 696T351 687ZM360 751Q374 751 384 762T395 787Q395 800 388 808T367 816Q353 816 343 805T332 780Q332 767 339 759T360 751Z"  />
<glyph unicode="&#xC6;" horiz-adv-x="659" d="M251 0L271 93H173L126 0H-58L321 667H733L699 513H540L519 415H671L637 261H485L461 154H620L586 0H251ZM352 459L248 247H305L352 459Z"  />
<glyph unicode="&#xC7;" horiz-adv-x="467" d="M177 -198Q144 -198 119 -187T75 -157L112 -103Q123 -117 140 -126T176 -136Q192 -136 201 -128T210 -106Q210 -98 206 -93T192 -88Q184 -88 180 -91T171 -100L124 -70L163 -3Q92 17 57 76T21 223Q21 263 28 312T50 412T90 511T149 596T228 655T330 678Q386 678 423 657T482 604T514 531T524 451L361 419Q361 439 359 457T353 490T341 513T320 522Q302 522 286 506T256 463T233 403T215 336T204 271T200 219Q200 179 210 162T239 144Q278 144 312 222L454 166Q419 83 366 36T231 -12H230L206 -49Q216 -40 229 -40Q252 -40 268 -56T284 -102Q284 -144 254 -171T177 -198Z"  />
<glyph unicode="&#xC8;" horiz-adv-x="405" d="M-13 0L134 667H470L436 513H277L256 415H408L374 261H221L198 154H357L323 0H-13ZM269 723L189 867H318L366 723H269Z"  />
<glyph unicode="&#xC9;" horiz-adv-x="405" d="M361 723H262L374 867H505L361 723ZM-13 0L134 667H470L436 513H277L256 415H408L374 261H221L198 154H357L323 0H-13Z"  />
<glyph unicode="&#xCA;" horiz-adv-x="405" d="M363 723L333 802L271 723H185L276 867H414L445 723H363ZM-13 0L134 667H470L436 513H277L256 415H408L374 261H221L198 154H357L323 0H-13Z"  />
<glyph unicode="&#xCB;" horiz-adv-x="405" d="M500 791Q500 773 493 757T472 729T443 710T409 702Q379 702 359 722T339 773Q339 791 346 807T366 835T395 854T429 862Q459 862 479 842T500 791ZM315 791Q315 773 308 757T288 729T259 710T225 702Q194 702 174 722T154 773Q154 791 161 807T181 835T210 854T244 862Q274 862 294 842T315 791ZM-13 0L134 667H470L436 513H277L256 415H408L374 261H221L198 154H357L323 0H-13Z"  />
<glyph unicode="&#xCC;" horiz-adv-x="259" d="M-13 0L134 667H311L164 0H-13ZM189 723L109 867H238L286 723H189Z"  />
<glyph unicode="&#xCD;" horiz-adv-x="259" d="M-13 0L134 667H311L164 0H-13ZM281 723H182L294 867H425L281 723Z"  />
<glyph unicode="&#xCE;" horiz-adv-x="259" d="M283 723L253 802L191 723H105L196 867H334L365 723H283ZM-13 0L134 667H311L164 0H-13Z"  />
<glyph unicode="&#xCF;" horiz-adv-x="259" d="M422 791Q422 773 415 757T394 729T365 710T331 702Q301 702 281 722T261 773Q261 791 268 807T288 835T317 854T351 862Q381 862 401 842T422 791ZM237 791Q237 773 230 757T210 729T181 710T147 702Q116 702 96 722T76 773Q76 791 83 807T103 835T132 854T166 862Q196 862 216 842T237 791ZM-13 0L134 667H311L164 0H-13Z"  />
<glyph unicode="&#xD0;" horiz-adv-x="550" d="M13 0L71 264H15L46 403H101L160 667H361Q400 667 435 652T499 606T543 533T560 433Q560 393 553 346T530 250T489 157T425 77T337 21T220 0H13ZM248 264L224 154H251Q285 154 310 186T350 262T373 353T381 430Q381 474 366 493T329 513H303L278 403H334L304 264H248Z"  />
<glyph unicode="&#xD1;" horiz-adv-x="532" d="M428 721Q405 721 394 729T376 747T362 765T342 774Q321 774 311 727H231Q245 787 273 824T347 861Q369 861 380 853T399 834T414 816T434 807Q445 807 452 818T465 855H545Q531 795 502 758T428 721ZM272 0L225 278L164 0H-13L134 667H311L350 406L407 667H583L436 0H272Z"  />
<glyph unicode="&#xD2;" horiz-adv-x="522" d="M321 723L241 867H370L418 723H321ZM231 -12Q177 -12 138 6T72 55T34 130T21 223Q21 264 28 313T51 413T91 512T150 596T229 655T330 678Q383 678 422 660T488 610T527 535T540 442Q540 401 533 351T509 251T469 154T410 69T331 10T231 -12ZM239 144Q257 144 273 160T303 203T327 263T345 330T356 394T360 445Q360 478 351 500T320 522Q302 522 286 506T256 462T233 402T215 335T204 271T200 219Q200 186 208 165T239 144Z"  />
<glyph unicode="&#xD3;" horiz-adv-x="522" d="M412 723H313L425 867H556L412 723ZM231 -12Q177 -12 138 6T72 55T34 130T21 223Q21 264 28 313T51 413T91 512T150 596T229 655T330 678Q383 678 422 660T488 610T527 535T540 442Q540 401 533 351T509 251T469 154T410 69T331 10T231 -12ZM239 144Q257 144 273 160T303 203T327 263T345 330T356 394T360 445Q360 478 351 500T320 522Q302 522 286 506T256 462T233 402T215 335T204 271T200 219Q200 186 208 165T239 144Z"  />
<glyph unicode="&#xD4;" horiz-adv-x="522" d="M416 723L386 802L324 723H238L329 867H467L498 723H416ZM231 -12Q177 -12 138 6T72 55T34 130T21 223Q21 264 28 313T51 413T91 512T150 596T229 655T330 678Q383 678 422 660T488 610T527 535T540 442Q540 401 533 351T509 251T469 154T410 69T331 10T231 -12ZM239 144Q257 144 273 160T303 203T327 263T345 330T356 394T360 445Q360 478 351 500T320 522Q302 522 286 506T256 462T233 402T215 335T204 271T200 219Q200 186 208 165T239 144Z"  />
<glyph unicode="&#xD5;" horiz-adv-x="522" d="M231 -12Q177 -12 138 6T72 55T34 130T21 223Q21 264 28 313T51 413T91 512T150 596T229 655T330 678Q383 678 422 660T488 610T527 535T540 442Q540 401 533 351T509 251T469 154T410 69T331 10T231 -12ZM239 144Q257 144 273 160T303 203T327 263T345 330T356 394T360 445Q360 478 351 500T320 522Q302 522 286 506T256 462T233 402T215 335T204 271T200 219Q200 186 208 165T239 144ZM422 721Q399 721 388 729T370 747T356 765T336 774Q315 774 305 727H225Q239 787 267 824T341 861Q363 861 374 853T393 834T408 816T428 807Q439 807 446 818T459 855H539Q525 795 496 758T422 721Z"  />
<glyph unicode="&#xD6;" horiz-adv-x="522" d="M553 791Q553 773 546 757T525 729T496 710T462 702Q432 702 412 722T392 773Q392 791 399 807T419 835T448 854T482 862Q512 862 532 842T553 791ZM368 791Q368 773 361 757T341 729T312 710T278 702Q247 702 227 722T207 773Q207 791 214 807T234 835T263 854T297 862Q327 862 347 842T368 791ZM231 -12Q177 -12 138 6T72 55T34 130T21 223Q21 264 28 313T51 413T91 512T150 596T229 655T330 678Q383 678 422 660T488 610T527 535T540 442Q540 401 533 351T509 251T469 154T410 69T331 10T231 -12ZM239 144Q257 144 273 160T303 203T327 263T345 330T356 394T360 445Q360 478 351 500T320 522Q302 522 286 506T256 462T233 402T215 335T204 271T200 219Q200 186 208 165T239 144Z"  />
<glyph unicode="&#xD7;" horiz-adv-x="388" d="M205 267L86 170L29 243L149 340L78 431L151 492L222 401L341 498L398 425L280 328L350 237L276 176L205 267Z"  />
<glyph unicode="&#xD8;" horiz-adv-x="522" d="M231 -12Q188 -12 155 -1T97 31L73 0H-22L48 92Q21 147 21 223Q21 264 28 313T51 413T91 512T150 596T229 655T330 678Q372 678 405 666T464 634L489 667H584L512 573Q540 517 540 442Q540 401 533 351T509 251T469 154T410 69T331 10T231 -12ZM320 522Q299 522 281 501T249 448T225 376T208 300L354 491Q344 522 320 522ZM239 144Q260 144 278 164T310 217T334 289T351 364L205 173Q215 144 239 144Z"  />
<glyph unicode="&#xD9;" horiz-adv-x="532" d="M236 -12Q194 -12 157 1T92 40T48 101T32 181Q32 189 33 199T36 221L134 667H311L209 204Q208 199 207 194T206 183Q206 164 218 153T249 142Q269 142 283 156T305 204L407 667H584L483 214Q470 155 446 112T388 42T316 1T236 -12ZM327 723L247 867H376L424 723H327Z"  />
<glyph unicode="&#xDA;" horiz-adv-x="532" d="M417 723H318L430 867H561L417 723ZM236 -12Q194 -12 157 1T92 40T48 101T32 181Q32 189 33 199T36 221L134 667H311L209 204Q208 199 207 194T206 183Q206 164 218 153T249 142Q269 142 283 156T305 204L407 667H584L483 214Q470 155 446 112T388 42T316 1T236 -12Z"  />
<glyph unicode="&#xDB;" horiz-adv-x="532" d="M422 723L392 802L330 723H244L335 867H473L504 723H422ZM236 -12Q194 -12 157 1T92 40T48 101T32 181Q32 189 33 199T36 221L134 667H311L209 204Q208 199 207 194T206 183Q206 164 218 153T249 142Q269 142 283 156T305 204L407 667H584L483 214Q470 155 446 112T388 42T316 1T236 -12Z"  />
<glyph unicode="&#xDC;" horiz-adv-x="532" d="M558 791Q558 773 551 757T530 729T501 710T467 702Q437 702 417 722T397 773Q397 791 404 807T424 835T453 854T487 862Q517 862 537 842T558 791ZM373 791Q373 773 366 757T346 729T317 710T283 702Q252 702 232 722T212 773Q212 791 219 807T239 835T268 854T302 862Q332 862 352 842T373 791ZM236 -12Q194 -12 157 1T92 40T48 101T32 181Q32 189 33 199T36 221L134 667H311L209 204Q208 199 207 194T206 183Q206 164 218 153T249 142Q269 142 283 156T305 204L407 667H584L483 214Q470 155 446 112T388 42T316 1T236 -12Z"  />
<glyph unicode="&#xDD;" horiz-adv-x="489" d="M102 0L161 269L86 667H265L279 435L396 667H589L337 269L279 0H102ZM395 723H296L408 867H539L395 723Z"  />
<glyph unicode="&#xDE;" horiz-adv-x="496" d="M-13 0L134 667H311L289 566H319Q359 566 393 552T453 514T492 455T506 379Q506 332 491 286T442 203T358 144T236 121H190L164 0H-13ZM248 275Q280 275 301 299T323 360Q323 386 310 399T278 412H255L225 275H248Z"  />
<glyph unicode="&#xDF;" horiz-adv-x="581" d="M553 171Q553 139 540 107T503 48T444 5T364 -12Q306 -12 262 5T186 60L260 162Q275 142 295 128T344 113Q358 113 369 121T381 144Q381 160 361 172T318 199T274 239T254 303Q254 352 274 379T318 424T363 456T383 496Q383 515 365 526T321 538Q291 538 272 521T242 461L141 0H-17L84 461Q94 505 114 544T165 613T238 660T333 677Q375 677 414 665T483 631T530 579T548 514Q548 468 527 440T481 392T435 360T414 332Q414 317 435 307T483 281T531 241T553 171Z"  />
<glyph unicode="&#xE0;" horiz-adv-x="461" d="M207 495Q245 495 271 480T310 428L323 483H479L372 0H215L227 53Q203 18 177 3T123 -12Q66 -12 36 28T6 153Q6 186 11 224T28 300T55 373T94 436T144 479T207 495ZM247 356Q226 356 211 335T187 286T173 227T168 177Q168 127 208 127Q221 127 232 136T251 160L287 322Q279 356 247 356ZM250 556L170 700H299L347 556H250Z"  />
<glyph unicode="&#xE1;" horiz-adv-x="461" d="M207 495Q245 495 271 480T310 428L323 483H479L372 0H215L227 53Q203 18 177 3T123 -12Q66 -12 36 28T6 153Q6 186 11 224T28 300T55 373T94 436T144 479T207 495ZM247 356Q226 356 211 335T187 286T173 227T168 177Q168 127 208 127Q221 127 232 136T251 160L287 322Q279 356 247 356ZM342 556H243L355 700H486L342 556Z"  />
<glyph unicode="&#xE2;" horiz-adv-x="461" d="M207 495Q245 495 271 480T310 428L323 483H479L372 0H215L227 53Q203 18 177 3T123 -12Q66 -12 36 28T6 153Q6 186 11 224T28 300T55 373T94 436T144 479T207 495ZM247 356Q226 356 211 335T187 286T173 227T168 177Q168 127 208 127Q221 127 232 136T251 160L287 322Q279 356 247 356ZM344 556L314 635L252 556H166L257 700H395L426 556H344Z"  />
<glyph unicode="&#xE3;" horiz-adv-x="461" d="M207 495Q245 495 271 480T310 428L323 483H479L372 0H215L227 53Q203 18 177 3T123 -12Q66 -12 36 28T6 153Q6 186 11 224T28 300T55 373T94 436T144 479T207 495ZM247 356Q226 356 211 335T187 286T173 227T168 177Q168 127 208 127Q221 127 232 136T251 160L287 322Q279 356 247 356ZM351 554Q328 554 317 562T299 580T285 598T265 607Q244 607 234 560H154Q168 620 196 657T270 694Q292 694 303 686T322 667T337 649T357 640Q368 640 375 651T388 688H468Q454 628 425 591T351 554Z"  />
<glyph unicode="&#xE4;" horiz-adv-x="461" d="M207 495Q245 495 271 480T310 428L323 483H479L372 0H215L227 53Q203 18 177 3T123 -12Q66 -12 36 28T6 153Q6 186 11 224T28 300T55 373T94 436T144 479T207 495ZM247 356Q226 356 211 335T187 286T173 227T168 177Q168 127 208 127Q221 127 232 136T251 160L287 322Q279 356 247 356ZM483 624Q483 606 476 590T455 562T426 543T392 535Q362 535 342 555T322 606Q322 624 329 640T349 668T378 687T412 695Q442 695 462 675T483 624ZM298 624Q298 606 291 590T271 562T242 543T208 535Q177 535 157 555T137 606Q137 624 144 640T164 668T193 687T227 695Q257 695 277 675T298 624Z"  />
<glyph unicode="&#xE5;" horiz-adv-x="461" d="M207 495Q245 495 271 480T310 428L323 483H479L372 0H215L227 53Q203 18 177 3T123 -12Q66 -12 36 28T6 153Q6 186 11 224T28 300T55 373T94 436T144 479T207 495ZM247 356Q226 356 211 335T187 286T173 227T168 177Q168 127 208 127Q221 127 232 136T251 160L287 322Q279 356 247 356ZM299 522Q262 522 239 546T215 607Q215 628 223 647T246 682T280 705T321 714Q359 714 382 690T405 629Q405 608 397 589T374 554T340 531T299 522ZM308 586Q322 586 332 597T343 622Q343 635 336 643T315 651Q301 651 291 640T280 615Q280 602 287 594T308 586Z"  />
<glyph unicode="&#xE6;" horiz-adv-x="698" d="M247 356Q226 356 211 335T187 286T173 227T168 177Q168 127 208 127Q221 127 232 136T251 160L287 322Q279 356 247 356ZM372 0H215L227 53Q203 18 177 3T123 -12Q66 -12 36 28T6 153Q6 186 11 224T28 300T55 373T94 436T144 479T207 495Q245 495 271 480T310 428L323 483H479L471 442Q486 460 513 478T572 495Q634 493 662 453T690 328Q690 292 684 255T670 189H417Q415 181 415 175Q415 168 419 158T432 139T457 124T497 118Q520 118 539 126T576 149L624 39Q598 13 565 1T499 -12Q446 -12 422 10T386 63L372 0ZM548 297Q549 304 549 310T550 322Q550 345 537 357T505 369Q489 369 478 362T458 345T446 322T439 297H548Z"  />
<glyph unicode="&#xE7;" horiz-adv-x="371" d="M145 -198Q112 -198 87 -187T43 -157L80 -103Q91 -117 108 -126T144 -136Q160 -136 169 -128T178 -106Q178 -98 174 -93T160 -88Q152 -88 148 -91T139 -100L92 -70L132 -2Q74 15 42 61T9 183Q9 242 26 298T76 398T154 468T258 495Q303 495 341 481T402 445L332 327Q321 343 306 349T273 356Q251 356 232 343T200 309T178 260T170 204Q170 165 189 146T241 127Q256 127 270 133T296 149L315 24Q270 -12 200 -12H198L174 -49Q184 -40 197 -40Q220 -40 236 -56T252 -102Q252 -144 222 -171T145 -198Z"  />
<glyph unicode="&#xE8;" horiz-adv-x="435" d="M200 -12Q109 -12 59 40T9 186Q9 238 25 293T73 393T149 466T254 495Q301 495 334 481T387 443T417 386T427 315Q427 279 420 243T407 189H153Q152 186 152 182T152 174Q152 167 155 157T167 138T191 121T233 114Q256 114 276 123T313 145L361 47Q331 19 287 4T200 -12ZM285 297Q286 303 286 309T287 321Q287 344 274 356T241 369Q225 369 214 362T194 345T182 322T175 297H285ZM253 556L173 700H302L350 556H253Z"  />
<glyph unicode="&#xE9;" horiz-adv-x="435" d="M344 556H245L357 700H488L344 556ZM200 -12Q109 -12 59 40T9 186Q9 238 25 293T73 393T149 466T254 495Q301 495 334 481T387 443T417 386T427 315Q427 279 420 243T407 189H153Q152 186 152 182T152 174Q152 167 155 157T167 138T191 121T233 114Q256 114 276 123T313 145L361 47Q331 19 287 4T200 -12ZM285 297Q286 303 286 309T287 321Q287 344 274 356T241 369Q225 369 214 362T194 345T182 322T175 297H285Z"  />
<glyph unicode="&#xEA;" horiz-adv-x="435" d="M344 556L314 635L252 556H166L257 700H395L426 556H344ZM200 -12Q109 -12 59 40T9 186Q9 238 25 293T73 393T149 466T254 495Q301 495 334 481T387 443T417 386T427 315Q427 279 420 243T407 189H153Q152 186 152 182T152 174Q152 167 155 157T167 138T191 121T233 114Q256 114 276 123T313 145L361 47Q331 19 287 4T200 -12ZM285 297Q286 303 286 309T287 321Q287 344 274 356T241 369Q225 369 214 362T194 345T182 322T175 297H285Z"  />
<glyph unicode="&#xEB;" horiz-adv-x="435" d="M484 624Q484 606 477 590T456 562T427 543T393 535Q363 535 343 555T323 606Q323 624 330 640T350 668T379 687T413 695Q443 695 463 675T484 624ZM299 624Q299 606 292 590T272 562T243 543T209 535Q178 535 158 555T138 606Q138 624 145 640T165 668T194 687T228 695Q258 695 278 675T299 624ZM200 -12Q109 -12 59 40T9 186Q9 238 25 293T73 393T149 466T254 495Q301 495 334 481T387 443T417 386T427 315Q427 279 420 243T407 189H153Q152 186 152 182T152 174Q152 167 155 157T167 138T191 121T233 114Q256 114 276 123T313 145L361 47Q331 19 287 4T200 -12ZM285 297Q286 303 286 309T287 321Q287 344 274 356T241 369Q225 369 214 362T194 345T182 322T175 297H285Z"  />
<glyph unicode="&#xEC;" horiz-adv-x="228" d="M-19 0L88 483H246L139 0H-19ZM140 556L60 700H189L237 556H140Z"  />
<glyph unicode="&#xED;" horiz-adv-x="228" d="M230 556H131L243 700H374L230 556ZM-19 0L88 483H246L139 0H-19Z"  />
<glyph unicode="&#xEE;" horiz-adv-x="228" d="M233 556L203 635L141 556H55L146 700H284L315 556H233ZM-19 0L88 483H246L139 0H-19Z"  />
<glyph unicode="&#xEF;" horiz-adv-x="228" d="M372 624Q372 606 365 590T344 562T315 543T281 535Q251 535 231 555T211 606Q211 624 218 640T238 668T267 687T301 695Q331 695 351 675T372 624ZM187 624Q187 606 180 590T160 562T131 543T97 535Q66 535 46 555T26 606Q26 624 33 640T53 668T82 687T116 695Q146 695 166 675T187 624ZM-19 0L88 483H246L139 0H-19Z"  />
<glyph unicode="&#xF0;" horiz-adv-x="451" d="M190 555L290 584Q286 608 281 629T268 668L420 715Q428 692 434 671T445 630L507 648L522 578L457 558Q463 504 463 442Q463 394 457 342T438 239T405 143T355 63T287 8T199 -12Q150 -12 114 2T54 41T19 100T7 173Q7 217 20 266T59 356T122 423T208 450Q254 450 277 424T308 364Q307 397 306 435T300 512L207 484L190 555ZM204 127Q220 127 233 140T255 172T269 215T274 258Q274 276 266 293T234 311Q217 311 205 297T184 262T171 218T166 178Q166 154 174 141T204 127Z"  />
<glyph unicode="&#xF1;" horiz-adv-x="462" d="M215 0L285 316Q285 318 286 323T287 331Q287 356 264 356Q246 356 232 341T207 309L139 0H-19L88 483H246L232 426Q242 439 255 451T285 473T320 489T359 495Q407 495 433 470T459 406Q459 401 458 393T456 380L373 0H215ZM356 554Q333 554 322 562T304 580T290 598T270 607Q249 607 239 560H159Q173 620 201 657T275 694Q297 694 308 686T327 667T342 649T362 640Q373 640 380 651T393 688H473Q459 628 430 591T356 554Z"  />
<glyph unicode="&#xF2;" horiz-adv-x="451" d="M196 -12Q149 -12 114 2T55 43T21 105T9 185Q9 237 25 292T72 392T149 466T253 495Q300 495 335 481T394 440T429 378T441 298Q441 245 425 190T377 90T300 17T196 -12ZM205 127Q225 127 239 148T263 198T277 256T282 302Q282 332 273 344T244 356Q224 356 210 335T187 285T173 227T168 181Q168 151 177 139T205 127ZM249 556L169 700H298L346 556H249Z"  />
<glyph unicode="&#xF3;" horiz-adv-x="451" d="M340 556H241L353 700H484L340 556ZM196 -12Q149 -12 114 2T55 43T21 105T9 185Q9 237 25 292T72 392T149 466T253 495Q300 495 335 481T394 440T429 378T441 298Q441 245 425 190T377 90T300 17T196 -12ZM205 127Q225 127 239 148T263 198T277 256T282 302Q282 332 273 344T244 356Q224 356 210 335T187 285T173 227T168 181Q168 151 177 139T205 127Z"  />
<glyph unicode="&#xF4;" horiz-adv-x="451" d="M343 556L313 635L251 556H165L256 700H394L425 556H343ZM196 -12Q149 -12 114 2T55 43T21 105T9 185Q9 237 25 292T72 392T149 466T253 495Q300 495 335 481T394 440T429 378T441 298Q441 245 425 190T377 90T300 17T196 -12ZM205 127Q225 127 239 148T263 198T277 256T282 302Q282 332 273 344T244 356Q224 356 210 335T187 285T173 227T168 181Q168 151 177 139T205 127Z"  />
<glyph unicode="&#xF5;" horiz-adv-x="451" d="M196 -12Q149 -12 114 2T55 43T21 105T9 185Q9 237 25 292T72 392T149 466T253 495Q300 495 335 481T394 440T429 378T441 298Q441 245 425 190T377 90T300 17T196 -12ZM205 127Q225 127 239 148T263 198T277 256T282 302Q282 332 273 344T244 356Q224 356 210 335T187 285T173 227T168 181Q168 151 177 139T205 127ZM350 554Q327 554 316 562T298 580T284 598T264 607Q243 607 233 560H153Q167 620 195 657T269 694Q291 694 302 686T321 667T336 649T356 640Q367 640 374 651T387 688H467Q453 628 424 591T350 554Z"  />
<glyph unicode="&#xF6;" horiz-adv-x="451" d="M481 624Q481 606 474 590T453 562T424 543T390 535Q360 535 340 555T320 606Q320 624 327 640T347 668T376 687T410 695Q440 695 460 675T481 624ZM296 624Q296 606 289 590T269 562T240 543T206 535Q175 535 155 555T135 606Q135 624 142 640T162 668T191 687T225 695Q255 695 275 675T296 624ZM196 -12Q149 -12 114 2T55 43T21 105T9 185Q9 237 25 292T72 392T149 466T253 495Q300 495 335 481T394 440T429 378T441 298Q441 245 425 190T377 90T300 17T196 -12ZM205 127Q225 127 239 148T263 198T277 256T282 302Q282 332 273 344T244 356Q224 356 210 335T187 285T173 227T168 181Q168 151 177 139T205 127Z"  />
<glyph unicode="&#xF7;" horiz-adv-x="374" d="M39 291L60 384H376L355 291H39ZM168 120Q142 120 124 138T105 183Q105 215 127 237T181 259Q207 259 225 240T244 195Q244 164 221 142T168 120ZM234 415Q208 415 189 433T170 478Q170 509 192 531T246 554Q272 554 291 535T310 490Q310 459 287 437T234 415Z"  />
<glyph unicode="&#xF8;" horiz-adv-x="451" d="M-35 0L33 75Q9 120 9 185Q9 237 25 292T72 392T149 466T253 495Q292 495 322 485T376 457L400 483H485L417 407Q441 362 441 298Q441 245 425 190T377 90T300 17T196 -12Q119 -12 73 25L51 0H-35ZM244 356Q230 356 219 344T198 314T183 273T173 231L273 342Q265 356 244 356ZM205 127Q219 127 230 138T251 168T266 208T276 251L176 139Q184 127 205 127Z"  />
<glyph unicode="&#xF9;" horiz-adv-x="462" d="M246 483L177 171Q175 164 174 159T173 149Q173 140 179 134T197 127Q215 127 229 141T253 173L322 483H480L373 0H215L228 57Q218 44 205 32T175 10T140 -6T102 -12Q54 -12 28 13T1 77Q1 82 2 90T5 103L88 483H246ZM255 556L175 700H304L352 556H255Z"  />
<glyph unicode="&#xFA;" horiz-adv-x="462" d="M345 556H246L358 700H489L345 556ZM246 483L177 171Q175 164 174 159T173 149Q173 140 179 134T197 127Q215 127 229 141T253 173L322 483H480L373 0H215L228 57Q218 44 205 32T175 10T140 -6T102 -12Q54 -12 28 13T1 77Q1 82 2 90T5 103L88 483H246Z"  />
<glyph unicode="&#xFB;" horiz-adv-x="462" d="M347 556L317 635L255 556H169L260 700H398L429 556H347ZM246 483L177 171Q175 164 174 159T173 149Q173 140 179 134T197 127Q215 127 229 141T253 173L322 483H480L373 0H215L228 57Q218 44 205 32T175 10T140 -6T102 -12Q54 -12 28 13T1 77Q1 82 2 90T5 103L88 483H246Z"  />
<glyph unicode="&#xFC;" horiz-adv-x="462" d="M486 624Q486 606 479 590T458 562T429 543T395 535Q365 535 345 555T325 606Q325 624 332 640T352 668T381 687T415 695Q445 695 465 675T486 624ZM301 624Q301 606 294 590T274 562T245 543T211 535Q180 535 160 555T140 606Q140 624 147 640T167 668T196 687T230 695Q260 695 280 675T301 624ZM246 483L177 171Q175 164 174 159T173 149Q173 140 179 134T197 127Q215 127 229 141T253 173L322 483H480L373 0H215L228 57Q218 44 205 32T175 10T140 -6T102 -12Q54 -12 28 13T1 77Q1 82 2 90T5 103L88 483H246Z"  />
<glyph unicode="&#xFD;" horiz-adv-x="435" d="M3 -52Q11 -57 26 -57Q48 -57 62 -33L79 -3L47 483H209L202 199L324 483H494L214 -64Q193 -104 174 -129T135 -170T92 -190T42 -196Q16 -196 -9 -192T-47 -181L3 -52ZM328 556H229L341 700H472L328 556Z"  />
<glyph unicode="&#xFE;" horiz-adv-x="461" d="M254 -12Q215 -12 189 3T150 55L98 -184H-59L128 667H286L233 430Q258 465 284 480T338 495Q454 495 454 330Q454 297 449 259T432 183T405 110T367 47T316 4T254 -12ZM213 127Q234 127 249 147T273 197T287 256T292 306Q292 356 252 356Q240 356 229 347T210 323L174 161Q178 144 188 136T213 127Z"  />
<glyph unicode="&#xFF;" horiz-adv-x="435" d="M3 -52Q11 -57 26 -57Q48 -57 62 -33L79 -3L47 483H209L202 199L324 483H494L214 -64Q193 -104 174 -129T135 -170T92 -190T42 -196Q16 -196 -9 -192T-47 -181L3 -52ZM469 624Q469 606 462 590T441 562T412 543T378 535Q348 535 328 555T308 606Q308 624 315 640T335 668T364 687T398 695Q428 695 448 675T469 624ZM284 624Q284 606 277 590T257 562T228 543T194 535Q163 535 143 555T123 606Q123 624 130 640T150 668T179 687T213 695Q243 695 263 675T284 624Z"  />
<glyph unicode="&#x110;" horiz-adv-x="550" d="M13 0L71 264H15L46 403H101L160 667H361Q400 667 435 652T499 606T543 533T560 433Q560 393 553 346T530 250T489 157T425 77T337 21T220 0H13ZM248 264L224 154H251Q285 154 310 186T350 262T373 353T381 430Q381 474 366 493T329 513H303L278 403H334L304 264H248Z"  />
<glyph unicode="&#x131;" horiz-adv-x="228" d="M-19 0L88 483H246L139 0H-19Z"  />
<glyph unicode="&#x152;" horiz-adv-x="671" d="M263 0L269 34Q249 8 221 -2T174 -12Q141 -12 113 3T64 47T31 121T19 223Q19 268 27 319T53 421T95 518T154 599T228 656T317 677Q343 677 368 665T403 633L410 667H745L711 513H552L531 415H683L649 261H497L473 154H633L598 0H263ZM365 463Q363 496 351 508T322 521Q302 521 285 505T255 462T230 402T212 336T202 271T198 219Q198 183 207 164T239 144Q254 144 273 158T307 204L365 463Z"  />
<glyph unicode="&#x153;" horiz-adv-x="693" d="M416 189Q415 187 415 182T415 175Q415 166 418 156T429 136T453 121T492 115Q509 115 531 122T572 146L620 47Q586 16 543 2T461 -12Q367 -12 330 55Q299 21 268 5T194 -12Q146 -12 111 2T54 43T20 106T9 185Q9 240 25 295T73 395T149 467T251 495Q291 495 325 480T382 429Q407 461 442 478T515 495Q553 495 584 485T638 453T673 397T686 315Q686 281 680 250T666 189H416ZM543 297Q545 302 545 309T546 321Q546 341 537 354T503 368Q487 368 476 362T457 345T445 322T438 297H543ZM278 302Q278 320 272 338T241 356Q222 356 208 336T185 289T172 231T168 181Q168 161 174 144T205 127Q224 127 238 147T261 196T274 254T278 302Z"  />
<glyph unicode="&#x160;" horiz-adv-x="437" d="M260 723L230 867H312L342 788L404 867H490L398 723H260ZM178 -12Q112 -12 57 11T-28 72L69 202Q88 176 118 160T178 144Q200 144 214 158T228 194Q228 210 216 224T186 253T147 285T107 325T77 375T65 440Q65 489 83 532T132 607T207 659T302 678Q353 678 403 660T486 605L395 474Q378 497 353 509T300 522Q276 522 265 508T253 476Q253 459 265 445T294 415T333 382T371 342T401 292T413 228Q413 180 397 137T349 60T275 8T178 -12Z"  />
<glyph unicode="&#x161;" horiz-adv-x="382" d="M195 556L165 700H247L277 621L339 700H425L333 556H195ZM156 -12Q124 -12 95 -5T40 12T-3 36T-31 64L51 165Q66 145 93 128T154 111Q175 111 187 119T199 141Q199 151 187 159T158 177T119 197T81 224T51 262T39 317Q39 351 51 383T86 440T145 480T227 495Q275 495 322 477T402 423L324 323Q319 329 309 337T286 353T258 366T227 372Q210 372 200 365T189 345Q189 336 201 329T232 312T272 292T312 264T342 224T355 169Q355 134 342 102T303 44T240 3T156 -12Z"  />
<glyph unicode="&#x178;" horiz-adv-x="489" d="M536 791Q536 773 529 757T508 729T479 710T445 702Q415 702 395 722T375 773Q375 791 382 807T402 835T431 854T465 862Q495 862 515 842T536 791ZM351 791Q351 773 344 757T324 729T295 710T261 702Q230 702 210 722T190 773Q190 791 197 807T217 835T246 854T280 862Q310 862 330 842T351 791ZM102 0L161 269L86 667H265L279 435L396 667H589L337 269L279 0H102Z"  />
<glyph unicode="&#x17D;" horiz-adv-x="412" d="M241 723L211 867H293L323 788L385 867H471L379 723H241ZM-28 0L4 147L229 513H85L119 667H472L441 526L211 154H366L332 0H-28Z"  />
<glyph unicode="&#x17E;" horiz-adv-x="368" d="M182 556L152 700H234L264 621L326 700H412L320 556H182ZM-35 0L-10 116L172 346H41L72 483H398L373 372L188 137H324L295 0H-35Z"  />
<glyph unicode="&#x192;" horiz-adv-x="431" d="M-50 -161L36 230H-1V367H67L101 525Q117 595 160 636T274 677Q302 677 333 672T387 652L345 513Q334 523 315 523Q298 523 288 510T272 477L248 367H315V230H217L130 -161H-50Z"  />
<glyph unicode="&#x2C6;" horiz-adv-x="260" d="M247 556L217 635L155 556H69L160 700H298L329 556H247Z"  />
<glyph unicode="&#x2C7;" horiz-adv-x="260" d="M131 556L101 700H183L213 621L275 700H361L269 556H131Z"  />
<glyph unicode="&#x2DA;" horiz-adv-x="188" d="M166 527Q129 527 106 551T82 612Q82 633 90 652T113 687T147 710T188 719Q226 719 249 695T272 634Q272 613 264 594T241 559T207 536T166 527ZM175 591Q189 591 199 602T210 627Q210 640 203 648T182 656Q168 656 158 645T147 620Q147 607 154 599T175 591Z"  />
<glyph unicode="&#x2DC;" horiz-adv-x="286" d="M267 554Q244 554 233 562T215 580T201 598T181 607Q160 607 150 560H70Q84 620 112 657T186 694Q208 694 219 686T238 667T253 649T273 640Q284 640 291 651T304 688H384Q370 628 341 591T267 554Z"  />
<glyph unicode="&#x2013;" horiz-adv-x="460" d="M15 176L44 308H444L415 176H15Z"  />
<glyph unicode="&#x2014;" horiz-adv-x="640" d="M15 176L44 308H624L595 176H15Z"  />
<glyph unicode="&#x2018;" horiz-adv-x="273" d="M80 456Q80 487 92 519T127 581T179 636T245 678L299 622Q285 616 270 608T239 588T212 565T193 538Q195 539 198 539T204 539Q233 539 255 520T277 463Q277 442 268 424T245 391T211 369T172 361Q154 361 138 367T109 385T88 415T80 456Z"  />
<glyph unicode="&#x2019;" horiz-adv-x="273" d="M310 582Q310 550 298 518T264 457T212 402T146 360L92 416Q105 422 120 430T151 450T178 473T198 500Q196 499 192 499T186 499Q157 499 135 518T113 576Q113 597 122 615T146 647T180 669T219 677Q237 677 253 671T282 653T302 623T310 582Z"  />
<glyph unicode="&#x201A;" horiz-adv-x="273" d="M200 85Q200 53 188 21T154 -40T102 -95T36 -137L-18 -81Q-5 -75 10 -67T41 -47T68 -24T88 3Q86 2 82 2T76 2Q47 2 25 21T3 79Q3 100 12 118T36 150T70 172T109 180Q127 180 143 174T172 156T192 127T200 85Z"  />
<glyph unicode="&#x201C;" horiz-adv-x="502" d="M312 456Q312 487 324 519T358 581T410 636T476 678L530 622Q517 616 502 608T471 588T444 565T424 538Q426 539 430 539T436 539Q465 539 487 520T509 463Q509 442 500 424T476 391T442 369T403 361Q385 361 369 367T340 385T320 415T312 456ZM84 456Q84 487 96 519T130 581T182 636T248 678L302 622Q289 616 274 608T243 588T216 565T196 538Q198 539 202 539T208 539Q237 539 259 520T281 463Q281 442 272 424T248 391T214 369T175 361Q157 361 141 367T112 385T92 415T84 456Z"  />
<glyph unicode="&#x201D;" horiz-adv-x="502" d="M310 582Q310 550 298 518T264 457T212 402T146 360L92 416Q105 422 120 430T151 450T178 473T198 500Q196 499 192 499T186 499Q157 499 135 518T113 576Q113 597 122 615T146 647T180 669T219 677Q237 677 253 671T282 653T302 623T310 582ZM538 582Q538 550 526 518T492 457T440 402T374 360L320 416Q333 422 348 430T379 450T406 473T426 500Q424 499 420 499T414 499Q385 499 363 518T341 576Q341 597 350 615T374 647T408 669T447 677Q465 677 481 671T510 653T530 623T538 582Z"  />
<glyph unicode="&#x201E;" horiz-adv-x="501" d="M200 85Q200 53 188 21T154 -40T102 -95T36 -137L-18 -81Q-5 -75 10 -67T41 -47T68 -24T88 3Q86 2 82 2T76 2Q47 2 25 21T3 79Q3 100 12 118T36 150T70 172T109 180Q127 180 143 174T172 156T192 127T200 85ZM428 85Q428 53 416 21T382 -40T330 -95T264 -137L210 -81Q223 -75 238 -67T269 -47T296 -24T316 3Q314 2 310 2T304 2Q275 2 253 21T231 79Q231 100 240 118T264 150T298 172T337 180Q355 180 371 174T400 156T420 127T428 85Z"  />
<glyph unicode="&#x2020;" horiz-adv-x="285" d="M239 521L200 327H120L168 521L78 517L94 590L183 587L198 677H278L254 587L343 590L327 517L239 521Z"  />
<glyph unicode="&#x2021;" horiz-adv-x="285" d="M327 517L239 521L198 338L288 342L272 269L184 272L167 180H87L112 272L23 269L39 342L126 338L167 521L78 517L94 590L182 587L198 677H278L254 587L343 590L327 517Z"  />
<glyph unicode="&#x2022;" horiz-adv-x="358" d="M305 255Q305 227 294 202T263 159T219 129T165 118Q141 118 121 126T85 150T62 185T53 230Q53 258 64 283T95 326T139 356T193 367Q217 367 237 359T273 335T296 300T305 255Z"  />
<glyph unicode="&#x2026;" horiz-adv-x="810" d="M90 -12Q54 -12 29 13T3 75Q3 96 11 115T34 149T68 171T108 180Q145 180 170 154T195 91Q195 70 187 52T164 19T131 -4T90 -12ZM360 -12Q324 -12 299 13T273 75Q273 96 281 115T304 149T338 171T378 180Q415 180 440 154T465 91Q465 70 457 52T434 19T401 -4T360 -12ZM630 -12Q594 -12 569 13T543 75Q543 96 551 115T574 149T608 171T648 180Q685 180 710 154T735 91Q735 70 727 52T704 19T671 -4T630 -12Z"  />
<glyph unicode="&#x2030;" horiz-adv-x="893" d="M76 0L507 667H568L136 0H76ZM414 -12Q356 -12 324 24T291 116Q291 159 304 197T340 262T392 306T453 322Q511 322 543 286T576 194Q576 150 563 113T527 48T475 4T414 -12ZM421 82Q430 82 440 90T458 113T471 145T477 185Q477 228 445 228Q436 228 427 220T409 197T395 165T390 126Q390 82 421 82ZM189 342Q132 342 99 379T66 471Q66 514 79 552T115 617T167 661T229 677Q286 677 319 641T352 549Q352 505 339 468T303 402T251 358T189 342ZM197 437Q206 437 215 445T233 468T247 500T252 539Q252 583 221 583Q212 583 203 575T185 552T171 520T166 480Q166 437 197 437ZM703 -12Q645 -12 613 24T580 116Q580 159 593 197T629 262T681 306T742 322Q800 322 832 286T865 194Q865 150 852 113T816 48T764 4T703 -12ZM711 82Q720 82 729 90T747 113T761 145T766 185Q766 228 735 228Q726 228 716 220T698 197T685 165T679 126Q679 82 711 82Z"  />
<glyph unicode="&#x2039;" horiz-adv-x="267" d="M79 63L29 243L159 420H278L145 239L194 63H79Z"  />
<glyph unicode="&#x203A;" horiz-adv-x="267" d="M188 420L238 240L108 63H-11L122 244L73 420H188Z"  />
<glyph unicode="&#x2044;" horiz-adv-x="151" d="M-91 0H-151L280 667H341L-91 0Z"  />
<glyph unicode="&#x20AC;" horiz-adv-x="488" d="M251 -12Q199 -12 160 4T95 51T55 123T41 218H7L28 312H48Q50 323 52 334T56 357H37L59 451H84Q101 496 125 537T183 609T257 659T350 678Q406 678 443 657T502 604T534 531T544 451L381 419Q381 439 379 457T373 490T361 513T340 522Q319 522 302 502T270 451H350L328 357H239Q237 346 235 335T230 312H319L298 218H220Q220 179 230 162T259 144Q298 144 332 222L474 166Q439 83 386 36T251 -12Z"  />
<glyph unicode="&#x2122;" horiz-adv-x="374" d="M356 447L396 629L301 447H293L278 629L238 447H210L258 667H301L311 510L389 667H432L384 447H356ZM175 641L132 447H104L147 641H105L110 667H222L217 641H175Z"  />
<glyph unicode="&#xF656;" horiz-adv-x="273" d="M68 0L122 248L60 198L8 267L173 400H273L185 0H68Z"  />
<glyph unicode="&#xF657;" horiz-adv-x="322" d="M-29 0L-9 91Q58 138 99 168T163 219T193 253T201 281Q201 296 190 305T159 314Q118 314 80 273L28 348Q55 374 91 390T170 406Q201 406 228 399T275 377T307 342T319 293Q319 265 308 242T273 195T215 147T136 92H278L257 0H-29Z"  />
<glyph unicode="&#xF658;" horiz-adv-x="322" d="M281 117Q281 93 270 71T240 31T193 4T132 -7Q81 -7 39 10T-25 62L58 130Q81 85 125 85Q146 85 157 98T169 127Q169 143 158 150T128 157Q119 157 111 157T97 156L117 247Q121 246 133 246T151 246Q176 246 188 256T200 284Q200 299 188 306T157 314Q140 314 121 306T86 281L30 347Q89 406 168 406Q233 406 274 380T316 303Q316 286 310 269T291 236T260 211T217 199Q252 189 266 166T281 117Z"  />
<glyph unicode="&#xF659;" horiz-adv-x="322" d="M243 77L227 0H110L127 77H-28L-8 165L175 400H315L264 168H295L275 77H243ZM171 273L90 168H147L171 273Z"  />


</font>
</defs>
</svg>
